<svg width="22" height="22" viewBox="0 0 22 22" fill="none" xmlns="http://www.w3.org/2000/svg">
<path d="M19.3861 6.17557C18.1392 4.2725 16.187 3.07274 14.0922 2.73488C14.1136 2.59008 14.0922 2.43149 14.0139 2.29359C13.8642 2.03157 13.5579 1.88678 13.2444 1.94883L8.91949 2.81073L8.32099 1.03177C8.23549 0.776654 8.00036 0.590485 7.72249 0.562904C7.44461 0.535323 7.17386 0.666331 7.03136 0.900767L5.74174 3.03137C4.86536 2.38323 3.78949 1.94194 2.69936 1.94194C2.30749 1.94194 1.98686 2.25222 1.98686 2.63145C1.98686 3.01069 2.30749 3.32097 2.69936 3.32097C3.52586 3.32097 4.35236 3.7071 5.00786 4.22423L0.882489 6.88577C0.618864 7.05125 0.504864 7.36843 0.597489 7.65802C0.682989 7.94762 0.960864 8.14758 1.27436 8.14758H3.17674L2.00824 12.0985C1.92274 12.4019 2.05099 12.7191 2.32886 12.8777C2.44286 12.9466 2.57111 12.9673 2.69936 12.9673C2.71361 15.222 3.74674 17.4078 5.64911 18.8144C8.46349 20.8898 12.5604 21.9448 17.8329 21.9448C18.0324 21.9448 18.2319 21.9448 18.4314 21.9379C20.0844 21.9103 21.488 20.6899 21.6946 19.0971C22.3715 13.8913 21.5949 9.5473 19.3861 6.17557ZM20.2839 18.9247C20.1627 19.8418 19.3647 20.5451 18.4171 20.5589C13.1802 20.6347 9.17599 19.6832 6.51836 17.7181C4.65161 16.339 3.81799 14.0292 4.23124 11.8089L5.25724 10.8505C4.31674 13.1259 4.99361 15.7254 6.95299 17.1733C9.38261 18.9661 13.0449 19.8763 17.8329 19.8763C18.0252 19.8763 18.2176 19.8763 18.4171 19.8694C18.809 19.8625 19.1225 19.5453 19.1154 19.166C19.1082 18.7868 18.7876 18.4903 18.4029 18.4903C18.3957 18.4903 18.3957 18.4903 18.3886 18.4903C13.6505 18.5731 10.088 17.7456 7.82224 16.077C6.29749 14.9531 5.82724 12.8501 6.71074 11.0849L8.55611 13.4017C8.68436 13.5672 8.89811 13.6637 9.11186 13.6637C9.19024 13.6637 9.26861 13.6499 9.33986 13.6292C9.63199 13.5327 9.82436 13.2707 9.82436 12.9742V8.06484L14.8974 7.45117C15.218 7.4098 15.4745 7.16847 15.5172 6.85819C15.56 6.5479 15.3819 6.25141 15.0826 6.1273L12.0759 4.93444L12.9879 4.01738C15.0185 4.05186 16.9921 5.08613 18.182 6.90645C20.2055 10.0093 20.918 14.0498 20.2839 18.9247ZM5.94124 5.2723C5.95549 5.2654 5.95549 5.25851 5.96261 5.25161C6.15499 5.54811 6.26186 5.8377 6.26186 6.07903C6.26186 6.45827 6.58249 6.76855 6.97436 6.76855C7.36624 6.76855 7.68686 6.45827 7.68686 6.07903C7.68686 5.42399 7.34486 4.68621 6.78911 4.01738L7.45174 2.92105L7.75811 3.83121C7.87211 4.16907 8.22836 4.36214 8.57749 4.29319L11.2636 3.75536L10.3089 4.71379C10.145 4.87928 10.0737 5.11371 10.1236 5.33436C10.1735 5.555 10.3302 5.74117 10.5511 5.83081L12.0189 6.41L9.01924 6.77544C8.67011 6.81682 8.39936 7.11331 8.39936 7.45807V10.947L6.61811 8.70609C6.49699 8.5475 6.30461 8.45097 6.10511 8.43718C6.09086 8.43718 6.06949 8.43718 6.05524 8.43718C5.86999 8.43718 5.69186 8.50613 5.55649 8.63024L4.11724 9.98169L4.80836 7.63734C4.87249 7.43738 4.82974 7.21673 4.69436 7.04436C4.55899 6.87198 4.34524 6.76855 4.12436 6.76855H3.62561L5.94124 5.2723Z" fill="#359740"/>
<path d="M12.1692 10.7053C12.3117 10.8363 12.4898 10.9053 12.675 10.9053C12.8603 10.9053 13.0384 10.8363 13.1809 10.7053C13.4588 10.4364 13.4588 10.002 13.1809 9.73308L12.4684 9.04356C12.1905 8.77465 11.7417 8.77465 11.4638 9.04356C11.1859 9.31248 11.1859 9.74687 11.4638 10.0158L12.1692 10.7053Z" fill="#359740"/>
<path d="M16.4441 10.0157C16.5866 10.1467 16.7647 10.2157 16.9499 10.2157C17.1352 10.2157 17.3133 10.1467 17.4558 10.0157C17.7337 9.74682 17.7337 9.31242 17.4558 9.04351L16.7433 8.354C16.4654 8.08509 16.0166 8.08509 15.7387 8.354C15.4608 8.62291 15.4608 9.0573 15.7387 9.32621L16.4441 10.0157Z" fill="#359740"/>
<path d="M13.1809 14.5528L12.4684 13.8633C12.1905 13.5944 11.7417 13.5944 11.4638 13.8633C11.1859 14.1322 11.1859 14.5666 11.4638 14.8355L12.1763 15.525C12.3117 15.6629 12.4898 15.7319 12.675 15.7319C12.8603 15.7319 13.0384 15.6629 13.1809 15.5319C13.4588 15.263 13.4588 14.8217 13.1809 14.5528Z" fill="#359740"/>
<path d="M15.019 13.4634C15.1615 13.5944 15.3396 13.6633 15.5249 13.6633C15.7101 13.6633 15.8883 13.5944 16.0308 13.4634C16.3086 13.1944 16.3086 12.76 16.0308 12.4911L15.3183 11.8016C15.0404 11.5327 14.5915 11.5327 14.3136 11.8016C14.0358 12.0705 14.0358 12.5049 14.3136 12.7738L15.019 13.4634Z" fill="#359740"/>
<path d="M17.8691 13.4633L18.5816 14.1528C18.7241 14.2839 18.9023 14.3528 19.0875 14.3528C19.2728 14.3528 19.4509 14.2839 19.5934 14.1528C19.8713 13.8839 19.8713 13.4495 19.5934 13.1806L18.8809 12.4911C18.603 12.2222 18.1541 12.2222 17.8763 12.4911C17.5913 12.7531 17.5913 13.1944 17.8691 13.4633Z" fill="#359740"/>
<path d="M16.7433 15.2423C16.4654 14.9734 16.0166 14.9734 15.7387 15.2423C15.4608 15.5112 15.4608 15.9456 15.7387 16.2145L16.4512 16.904C16.5866 17.0419 16.7647 17.1109 16.9499 17.1109C17.1352 17.1109 17.3133 17.0419 17.4558 16.9109C17.7337 16.642 17.7337 16.2076 17.4558 15.9387L16.7433 15.2423Z" fill="#359740"/>
</svg>
