<svg width="14" height="14" viewBox="0 0 14 14" fill="none" xmlns="http://www.w3.org/2000/svg">
<path d="M13.6666 5.73337C13.7333 5.40004 13.4666 5.00004 13.1333 5.00004L9.33325 4.46671L7.59992 1.00004C7.53325 0.866707 7.46659 0.80004 7.33325 0.733374C6.99992 0.533374 6.59992 0.666707 6.39992 1.00004L4.73325 4.46671L0.933252 5.00004C0.733252 5.00004 0.599919 5.06671 0.533252 5.20004C0.266585 5.46671 0.266585 5.86671 0.533252 6.13337L3.26659 8.80004L2.59992 12.6C2.59992 12.7334 2.59992 12.8667 2.66659 13C2.86659 13.3334 3.26659 13.4667 3.59992 13.2667L6.99992 11.4667L10.3999 13.2667C10.4666 13.3334 10.5999 13.3334 10.7333 13.3334C10.7999 13.3334 10.7999 13.3334 10.8666 13.3334C11.1999 13.2667 11.4666 12.9334 11.3999 12.5334L10.7333 8.73337L13.4666 6.06671C13.5999 6.00004 13.6666 5.86671 13.6666 5.73337ZM9.53325 8.06671C9.39992 8.20004 9.33325 8.46671 9.33325 8.66671L9.79992 11.4667L7.26659 10.1334C7.19992 10.0667 7.06659 10.0667 6.93325 10.0667V2.80004L8.19992 5.33337C8.26659 5.53337 8.46659 5.66671 8.73325 5.66671L11.5333 6.06671L9.53325 8.06671Z" fill="#FFCF55"/>
</svg>
