<svg width="18" height="27" viewBox="0 0 18 27" fill="none" xmlns="http://www.w3.org/2000/svg">
<path d="M0 23.4949L3.01639 20.1386C4.52597 21.8168 6.57105 22.3767 8.78385 22.3767C11.5333 22.3767 13.009 21.2205 13.009 19.0947C13.009 18.1615 12.7746 17.3785 12.2718 16.8566C11.8016 16.3727 11.265 16.1116 10.1585 15.9248L7.27542 15.4773C5.23035 15.1418 3.72077 14.4334 2.6484 13.2772C1.5082 12.0083 0.938787 10.2924 0.938787 8.05567C0.938787 3.31858 4.09015 0 9.25382 0C12.5388 0 14.9205 0.895153 16.9655 3.0955L14.0142 6.33949C12.506 4.73567 10.6953 4.51259 9.11885 4.51259C6.63772 4.51259 5.43061 6.04205 5.43061 7.86894C5.43061 8.5396 5.63226 9.24826 6.13499 9.7702C6.60519 10.2558 7.37625 10.6653 8.34757 10.8157L11.1653 11.2633C13.3437 11.5987 14.7186 12.2694 15.724 13.3133C16.9994 14.6562 17.5689 16.5953 17.5689 18.9457C17.5689 24.0912 13.7131 27 8.71694 27C5.09561 27 2.34616 26.1426 0 23.4949Z" fill="#359740"/>
</svg>
