<svg width="28" height="28" viewBox="0 0 28 28" fill="none" xmlns="http://www.w3.org/2000/svg">
<path d="M7.01141 6.53993C6.82767 7.12353 7.28392 8.41472 7.48496 8.63978L7.30981 8.93701L10.8534 21.3102C11.0525 22.0593 11.6299 22.1064 11.8936 22.0363L21.1519 19.575C22.0713 19.4642 22.2295 18.9543 22.1936 18.7131L18.7837 5.88667L18.4049 5.7367C18.5606 5.4725 18.6513 4.1139 18.1688 3.57374C17.5657 2.89854 7.24109 5.81045 7.01141 6.53993Z" stroke="#359740" stroke-width="1.5"/>
<path d="M4.03846 13.1508C3.95237 13.7723 4.69256 14.8968 4.95265 15.0576L4.82083 15.3978L11.0201 26.4149C11.3789 27.0864 12.0106 26.9647 12.2817 26.8199L21.7953 21.7374C22.7658 21.3627 22.8384 20.8204 22.7534 20.5961L16.6112 9.09894L16.1738 9.06284C16.291 8.76047 16.1278 7.41156 15.5036 7.02572C14.7233 6.54342 4.14606 12.374 4.03846 13.1508Z" fill="white" stroke="#359740" stroke-width="1.5"/>
</svg>
