<svg width="32" height="32" viewBox="0 0 32 32" fill="none" xmlns="http://www.w3.org/2000/svg">
<path d="M9.00713 12.2447C8.4238 12.5924 7.81335 12.8007 7.16387 12.8703C6.72629 12.9195 6.31009 12.8688 5.962 12.7339C5.39133 12.5075 4.96791 12.1001 4.70729 11.5271C4.64715 11.3948 4.643 11.2417 4.7021 11.1006C4.94407 10.5144 5.35243 10.1029 5.92172 9.85695C6.26329 9.70938 6.68347 9.6519 7.1199 9.68434C8.02208 9.75665 8.84827 10.0984 9.64345 10.7013L10.0745 10.6934C10.1645 10.3223 10.3599 9.98168 10.634 9.70002L10.4095 9.32337C9.47423 8.96576 8.74945 8.43911 8.22058 7.70852C7.95933 7.35378 7.79445 6.97272 7.7405 6.60024C7.64965 5.9883 7.79251 5.4238 8.1599 4.91223C8.24461 4.79326 8.37781 4.71386 8.52276 4.69594C9.14751 4.61613 9.712 4.75899 10.2071 5.13C10.509 5.35463 10.7658 5.68093 10.9535 6.07948C11.34 6.89494 11.4585 7.783 11.3282 8.7758L11.5527 9.15244C11.9281 9.04073 12.3233 9.03545 12.6926 9.13281L12.9046 8.75743C12.7498 7.76656 12.8422 6.87728 13.2059 6.05665C13.3822 5.65274 13.6308 5.31781 13.9277 5.08482C14.4103 4.7038 14.9711 4.53761 15.6018 4.60363C15.7467 4.61688 15.8794 4.69338 15.9744 4.81104C16.3591 5.31012 16.5161 5.8764 16.4391 6.48877C16.3922 6.85912 16.2388 7.24935 15.9874 7.61086C15.6172 8.14902 15.1437 8.58692 14.5603 8.93463C14.3353 9.06878 14.0919 9.18271 13.8385 9.29019L13.6265 9.66557C13.7609 9.7971 13.8889 9.9387 13.9902 10.1086C14.0915 10.2786 14.1552 10.4585 14.2069 10.6393L14.6453 10.6333C15.4211 10.0027 16.2383 9.64012 17.1401 9.5446C17.5777 9.49543 17.9939 9.54615 18.342 9.68105C18.9126 9.90738 19.336 10.3149 19.5967 10.8879C19.6568 11.0201 19.6564 11.176 19.6018 11.3143C19.4024 11.7943 19.0913 12.1602 18.6734 12.4093C18.5815 12.4641 18.4869 12.5143 18.3868 12.5552C18.0452 12.7028 17.6297 12.7576 17.1886 12.7279C16.2865 12.6555 15.4603 12.3138 14.6697 11.7081L14.2386 11.7161C14.1505 12.0799 13.9551 12.4205 13.6856 12.6994C13.765 12.8326 13.849 12.963 13.9284 13.0962C14.8471 13.4575 15.5618 13.9777 16.0898 14.6963C16.3511 15.0511 16.516 15.4321 16.5699 15.8046C16.6266 16.1817 16.5834 16.5374 16.4622 16.8773C16.8577 17.4259 17.2561 17.9479 17.6453 18.4443C17.6905 18.0501 17.8062 17.6698 18.0044 17.3027C18.4304 16.5134 19.1529 15.9396 20.0863 15.6571C20.8133 15.4354 21.5727 15.3936 22.3289 15.5343C22.5186 15.5706 22.6796 15.7049 22.7414 15.8922C22.8033 16.0794 22.7559 16.282 22.6225 16.4237C22.2491 16.8207 21.7747 17.5392 21.669 18.2496C21.5044 19.3624 20.8908 20.0145 20.2064 20.4224C19.9997 20.5457 19.7931 20.6377 19.5838 20.7251C21.2714 22.5329 22.8233 23.7369 24.125 24.2185C24.4035 24.3202 24.5439 24.6287 24.4422 24.9072C24.396 25.0281 24.3141 25.1205 24.213 25.1807C24.0798 25.2601 23.911 25.2798 23.7535 25.2243C22.8163 24.8741 21.8543 24.2523 20.9092 23.4709L20.8312 23.5175C20.4478 23.8456 20.0149 24.1846 19.5372 24.4693C18.6369 25.0059 17.5648 25.3587 16.3256 25.1075C15.4421 24.9307 14.2557 25.1648 13.5094 25.4166C13.3037 25.4894 13.0783 25.4245 12.9394 25.2646C12.8005 25.1046 12.7663 24.8697 12.8622 24.6756C13.2727 23.8395 13.8637 23.0764 14.6204 22.4137C15.5683 21.581 16.6482 21.0743 17.7417 20.9454C17.9343 20.9239 18.1205 20.9125 18.3076 20.9131C18.2893 20.8929 18.2683 20.868 18.25 20.8478C17.3369 19.8171 16.4917 18.7335 15.7473 17.7143C15.1363 17.7859 14.5837 17.6422 14.1061 17.2795C13.8041 17.0548 13.5474 16.7285 13.3596 16.33C12.9731 15.5145 12.8546 14.6265 12.9804 13.6364L12.7559 13.2598C12.3805 13.3715 11.9852 13.3767 11.6159 13.2794L11.4039 13.6548C11.5588 14.6456 11.4663 15.5349 11.1026 16.3555C10.9263 16.7595 10.6777 17.0944 10.3809 17.3274C10.2972 17.3959 10.2081 17.4553 10.1162 17.51C9.69823 17.7592 9.22381 17.8614 8.71134 17.8058C8.56374 17.788 8.43373 17.7161 8.3387 17.5984C7.95406 17.0993 7.79705 16.5331 7.87402 15.9207C7.92094 15.5503 8.0743 15.1601 8.32571 14.7986C8.84141 14.0554 9.54912 13.5091 10.4701 13.122L10.6839 12.7393C10.5495 12.6078 10.4215 12.4662 10.3202 12.2962C10.2189 12.1263 10.1552 11.9463 10.1035 11.7655L9.67245 11.7735C9.44817 11.9507 9.2322 12.1106 9.00713 12.2447ZM7.03336 10.7506C6.76564 10.7297 6.52804 10.7593 6.33981 10.8403C6.10476 10.9369 5.93101 11.084 5.80018 11.2927C5.93531 11.4985 6.11832 11.6384 6.35556 11.7336C6.54334 11.8084 6.78262 11.8339 7.0514 11.8044C7.5963 11.7473 8.09113 11.5644 8.57439 11.2576C8.0773 10.9563 7.57613 10.7944 7.03336 10.7506ZM15.0987 7.00761C15.2525 6.78521 15.3439 6.56263 15.3674 6.36186C15.3993 6.11252 15.356 5.88313 15.2438 5.66363C14.998 5.67942 14.7859 5.76226 14.5892 5.92309C14.433 6.04736 14.2893 6.24503 14.1804 6.49049C13.9607 6.98873 13.8647 7.50659 13.8906 8.08258C14.3976 7.80526 14.7911 7.45241 15.0987 7.00761ZM17.2633 11.6624C17.531 11.6834 17.7686 11.6538 17.9568 11.5727C18.1891 11.4716 18.3675 11.3217 18.4964 11.1204C18.3613 10.9146 18.1783 10.7746 17.9438 10.6841C17.756 10.6093 17.5167 10.5838 17.248 10.6133C16.7031 10.6704 16.2128 10.8506 15.725 11.16C16.2193 11.4568 16.7205 11.6187 17.2633 11.6624ZM20.6121 18.0952C20.6953 17.5351 20.9307 16.9902 21.2109 16.5306C20.9366 16.5509 20.6668 16.5996 20.3924 16.6823C19.9353 16.824 19.3035 17.1322 18.9365 17.8116C18.7217 18.2135 18.5044 18.8411 18.9233 19.8364C19.9992 19.469 20.4802 18.9706 20.6121 18.0952ZM9.19791 15.4055C9.04411 15.6279 8.95268 15.8504 8.92917 16.0512C8.90001 16.3052 8.93603 16.5327 9.05279 16.7495C9.29861 16.7337 9.51069 16.6508 9.7074 16.49C9.86366 16.3657 10.0073 16.168 10.1162 15.9226C10.3359 15.4243 10.4319 14.9065 10.406 14.3305C9.89901 14.6078 9.50549 14.9607 9.19791 15.4055ZM9.56354 5.99292C9.36039 5.8401 9.14603 5.76245 8.89844 5.75439C8.79235 5.97326 8.75868 6.19876 8.79188 6.45288C8.8234 6.65198 8.92364 6.87236 9.0789 7.09107C9.4041 7.5322 9.80111 7.87449 10.3121 8.13642C10.322 7.55778 10.2144 7.043 9.97917 6.55444C9.86984 6.30836 9.72367 6.11535 9.56354 5.99292ZM17.8633 22.0058C16.9863 22.1115 16.1038 22.5317 15.3178 23.2182C15.0116 23.4878 14.7375 23.7695 14.4963 24.0751C15.1716 23.9651 15.9008 23.9352 16.5359 24.0608C17.6678 24.2888 18.73 23.8984 20.0749 22.7606C19.5027 22.1243 18.8046 21.893 17.8633 22.0058ZM14.7331 16.4202C14.9362 16.573 15.1506 16.6506 15.3982 16.6587C15.5043 16.4398 15.5425 16.2116 15.5047 15.9602C15.4732 15.7611 15.373 15.5407 15.2177 15.322C14.8925 14.8809 14.4955 14.5386 13.9845 14.2767C13.9746 14.8553 14.0823 15.3701 14.3174 15.8586C14.4268 16.1047 14.573 16.2977 14.7331 16.4202ZM12.6959 12.1252C13.2011 11.824 13.3681 11.1642 13.067 10.659C12.7658 10.1537 12.106 9.98673 11.6007 10.2879C11.0955 10.5891 10.9285 11.2489 11.2297 11.7541C11.5308 12.2594 12.1906 12.4263 12.6959 12.1252Z" fill="#359740"/>
</svg>
