<svg width="14" height="14" viewBox="0 0 14 14" fill="none" xmlns="http://www.w3.org/2000/svg">
<path d="M13.6667 5.73337C13.7334 5.40004 13.4667 5.00004 13.1334 5.00004L9.33337 4.46671L7.60004 1.00004C7.53337 0.866707 7.46671 0.80004 7.33337 0.733374C7.00004 0.533374 6.60004 0.666707 6.40004 1.00004L4.73337 4.46671L0.933374 5.00004C0.733374 5.00004 0.600041 5.06671 0.533374 5.20004C0.266707 5.46671 0.266707 5.86671 0.533374 6.13337L3.26671 8.80004L2.60004 12.6C2.60004 12.7334 2.60004 12.8667 2.66671 13C2.86671 13.3334 3.26671 13.4667 3.60004 13.2667L7.00004 11.4667L10.4 13.2667C10.4667 13.3334 10.6 13.3334 10.7334 13.3334C10.8 13.3334 10.8 13.3334 10.8667 13.3334C11.2 13.2667 11.4667 12.9334 11.4 12.5334L10.7334 8.73337L13.4667 6.06671C13.6 6.00004 13.6667 5.86671 13.6667 5.73337Z" fill="#FFCF55"/>
</svg>
